<svg xmlns="http://www.w3.org/2000/svg" width="15.995" height="16.002" viewBox="0 0 15.995 16.002">
  <path id="Path_2661" data-name="Path 2661" d="M239.327,69.618a1,1,0,0,0-1.414,0l-6.29,6.29-6.29-6.29a1,1,0,0,0-1.414,1.414l6.29,6.29-6.29,6.29a1,1,0,0,0,0,1.414,1.037,1.037,0,0,0,.692.3.914.914,0,0,0,.692-.3l6.29-6.29,6.29,6.29a1.037,1.037,0,0,0,.692.3.871.871,0,0,0,.692-.3,1,1,0,0,0,0-1.414l-6.29-6.29,6.35-6.29A1,1,0,0,0,239.327,69.618Z" transform="translate(-223.625 -69.325)" fill="#0050a0"/>
</svg>
