<svg xmlns="http://www.w3.org/2000/svg" width="13.316" height="15.3" viewBox="0 0 13.316 15.3">
  <g id="Group_23939" data-name="Group 23939" transform="translate(-829.843 -996.85)">
    <path id="Path_145" data-name="Path 145" d="M222.755,154.7a.324.324,0,0,0-.357.274v5.171a.37.37,0,0,0,.714,0v-5.171A.324.324,0,0,0,222.755,154.7Zm0,0" transform="translate(614.923 848.704)" fill="#0050a0" stroke="#0050a0" stroke-width="0.3"/>
    <path id="Path_146" data-name="Path 146" d="M104.755,154.7a.324.324,0,0,0-.357.274v5.171a.37.37,0,0,0,.714,0v-5.171A.324.324,0,0,0,104.755,154.7Zm0,0" transform="translate(730.568 848.704)" fill="#0050a0" stroke="#0050a0" stroke-width="0.3"/>
    <path id="Path_147" data-name="Path 147" d="M1.061,4.464v8.655a1.872,1.872,0,0,0,.55,1.337A1.907,1.907,0,0,0,2.951,15h7.092a1.906,1.906,0,0,0,1.339-.543,1.872,1.872,0,0,0,.55-1.337V4.464a1.347,1.347,0,0,0,1.053-1.471,1.4,1.4,0,0,0-1.42-1.168H9.646V1.386A1.337,1.337,0,0,0,9.213.4,1.525,1.525,0,0,0,8.161,0H4.833A1.525,1.525,0,0,0,3.781.4a1.337,1.337,0,0,0-.433.985v.439H1.429A1.4,1.4,0,0,0,.009,2.994,1.347,1.347,0,0,0,1.061,4.464ZM10.043,14.3H2.951a1.144,1.144,0,0,1-1.139-1.177V4.5h9.371v8.624A1.144,1.144,0,0,1,10.043,14.3ZM4.1,1.386A.655.655,0,0,1,4.311.9.748.748,0,0,1,4.833.7H8.161a.748.748,0,0,1,.522.2.655.655,0,0,1,.213.488v.439H4.1ZM1.429,2.528H11.565a.655.655,0,0,1,.675.632.655.655,0,0,1-.675.632H1.429A.655.655,0,0,1,.754,3.16.655.655,0,0,1,1.429,2.528Zm0,0" transform="translate(830.004 997.001)" fill="#0050a0" stroke="#0050a0" stroke-width="0.3"/>
  </g>
</svg>
