<svg xmlns="http://www.w3.org/2000/svg" width="14.3" height="15.3" viewBox="0 0 14.3 15.3">
  <path id="Path_118829" data-name="Path 118829" d="M44.618,5.365h-.38V3.628a.267.267,0,0,0,0-.033.28.28,0,0,0-.074-.19L41.114.1l0,0a.3.3,0,0,0-.062-.049l-.02-.011a.335.335,0,0,0-.061-.024L40.951.008A.327.327,0,0,0,40.88,0H33.39a.605.605,0,0,0-.62.588V5.365h-.38a.864.864,0,0,0-.886.841v4.372a.865.865,0,0,0,.886.841h.38v2.993a.605.605,0,0,0,.62.588H43.618a.606.606,0,0,0,.62-.588V11.419h.38a.864.864,0,0,0,.886-.841V6.206A.864.864,0,0,0,44.618,5.365ZM33.39.588H40.57V3.6a.3.3,0,0,0,.31.294h2.738V5.365H33.39ZM40.345,9.65V10.5H37.388V6.01h1.075V9.65Zm-7.615.853L34.1,8.23,32.78,6.01h1.229l.414.82c.141.273.246.493.358.747H34.8c.113-.287.2-.487.323-.747l.4-.82h1.222L35.407,8.2l1.405,2.3H35.576l-.428-.813c-.176-.313-.288-.547-.421-.807h-.014c-.1.26-.218.493-.365.807l-.394.813H32.731Zm10.888,3.75H33.39V11.419H43.618v2.834ZM42.136,10.57A3.238,3.238,0,0,1,40.8,10.3l.217-.84a2.852,2.852,0,0,0,1.187.28c.492,0,.752-.193.752-.487s-.225-.44-.794-.633c-.787-.26-1.3-.673-1.3-1.327,0-.767.674-1.353,1.792-1.353a3.04,3.04,0,0,1,1.208.227l-.239.82a2.348,2.348,0,0,0-.99-.213c-.464,0-.688.2-.688.433,0,.287.267.413.878.633.836.293,1.229.706,1.229,1.34C44.047,9.93,43.436,10.57,42.136,10.57Z" transform="translate(-31.354 0.15)" fill="#0050a0" stroke="#0050a0" stroke-width="0.3"/>
</svg>
