<svg xmlns="http://www.w3.org/2000/svg" width="22.546" height="22.546" viewBox="0 0 22.546 22.546">
  <g id="Group_19344" data-name="Group 19344" transform="translate(-1267.866 -519.727)">
    <path id="Path_18961" data-name="Path 18961" d="M218.485,327.652a1.589,1.589,0,1,0,1.59,1.59A1.592,1.592,0,0,0,218.485,327.652Zm0,1.959a.37.37,0,1,1,.37-.37A.37.37,0,0,1,218.485,329.612Zm0,0" transform="translate(1060.654 206.395)" fill="#fff"/>
    <path id="Path_18962" data-name="Path 18962" d="M218.485,99.484a1.592,1.592,0,0,0-1.59,1.59v5.355a1.59,1.59,0,0,0,3.18,0v-5.355A1.592,1.592,0,0,0,218.485,99.484Zm.37,6.945a.37.37,0,0,1-.74,0v-5.355a.37.37,0,0,1,.74,0Zm0,0" transform="translate(1060.654 425.289)" fill="#fff"/>
    <path id="Path_18963" data-name="Path 18963" d="M19.244,3.3A11.273,11.273,0,0,0,3.3,19.244,11.273,11.273,0,0,0,19.244,3.3ZM18.31,18.31A9.952,9.952,0,1,1,4.236,4.236,9.952,9.952,0,1,1,18.31,18.31Zm0,0" transform="translate(1267.866 519.727)" fill="#fff"/>
  </g>
</svg>
