<svg id="icons8-microsoft-excel-2019-480" xmlns="http://www.w3.org/2000/svg" width="23.238" height="20.914" viewBox="0 0 23.238 20.914">
  <path id="Path_111048" data-name="Path 111048" d="M22.714,6h-7.7A1.013,1.013,0,0,0,14,7.013V11.23h8.714Z" transform="translate(-8.191 -6)" fill="#169154"/>
  <path id="Path_111049" data-name="Path 111049" d="M14,33.054v4.184a1.013,1.013,0,0,0,1.013,1.013h7.7v-5.2Z" transform="translate(-8.191 -17.337)" fill="#18482a"/>
  <path id="Path_111050" data-name="Path 111050" d="M14,15h8.714v5.23H14Z" transform="translate(-8.191 -9.773)" fill="#0c8045"/>
  <path id="Path_111051" data-name="Path 111051" d="M14,24h8.714v5.258H14Z" transform="translate(-8.191 -13.545)" fill="#17472a"/>
  <g id="Group_19343" data-name="Group 19343" transform="translate(14.524)">
    <path id="Path_111052" data-name="Path 111052" d="M36.7,6H29v5.23h8.714V7.013A1.013,1.013,0,0,0,36.7,6Z" transform="translate(-29 -6)" fill="#29c27f"/>
    <path id="Path_111053" data-name="Path 111053" d="M29,33.054v5.2h7.7a1.013,1.013,0,0,0,1.013-1.013V33.055H29Z" transform="translate(-29 -17.337)" fill="#27663f"/>
    <path id="Path_111054" data-name="Path 111054" d="M29,15h8.714v5.23H29Z" transform="translate(-29 -9.773)" fill="#19ac65"/>
    <path id="Path_111055" data-name="Path 111055" d="M29,24h8.714v5.258H29Z" transform="translate(-29 -13.545)" fill="#129652"/>
  </g>
  <path id="Path_111056" data-name="Path 111056" d="M14.642,25.619H4.977A.977.977,0,0,1,4,24.642V14.977A.977.977,0,0,1,4.977,14h9.666a.977.977,0,0,1,.977.977v9.666A.977.977,0,0,1,14.642,25.619Z" transform="translate(-4 -9.352)" fill="#0c7238"/>
  <path id="Path_111057" data-name="Path 111057" d="M9.689,19h1.386L12.2,21.181,13.389,19h1.295L12.9,21.9l1.825,2.9H13.359l-1.226-2.283-1.221,2.283H9.526l1.855-2.915Z" transform="translate(-6.316 -11.448)" fill="#fff"/>
</svg>
