<svg id="icons8-microsoft-excel-2019-480" xmlns="http://www.w3.org/2000/svg" width="20" height="20" viewBox="0 0 20 20">
  <path id="Path_111048" data-name="Path 111048" d="M23.191,6H15.069A1.069,1.069,0,0,0,14,7.069v4.448h9.191Z" transform="translate(-9.677 -6)" fill="#169154"/>
  <path id="Path_111049" data-name="Path 111049" d="M14,33.054v4.413a1.069,1.069,0,0,0,1.068,1.069h8.123V33.054Z" transform="translate(-9.677 -18.536)" fill="#18482a"/>
  <path id="Path_111050" data-name="Path 111050" d="M14,15h9.191v5.516H14Z" transform="translate(-9.677 -10.173)" fill="#0c8045"/>
  <path id="Path_111051" data-name="Path 111051" d="M14,24h9.191v5.546H14Z" transform="translate(-9.677 -14.348)" fill="#17472a"/>
  <g id="Group_19343" data-name="Group 19343" transform="translate(10.809)">
    <path id="Path_111052" data-name="Path 111052" d="M37.123,6H29v5.517h9.191V7.069A1.069,1.069,0,0,0,37.123,6Z" transform="translate(-29 -6)" fill="#29c27f"/>
    <path id="Path_111053" data-name="Path 111053" d="M29,33.054v5.482h8.123a1.069,1.069,0,0,0,1.068-1.068V33.055H29Z" transform="translate(-29 -18.536)" fill="#27663f"/>
    <path id="Path_111054" data-name="Path 111054" d="M29,15h9.191v5.516H29Z" transform="translate(-29 -10.173)" fill="#19ac65"/>
    <path id="Path_111055" data-name="Path 111055" d="M29,24h9.191v5.546H29Z" transform="translate(-29 -14.348)" fill="#129652"/>
  </g>
  <path id="Path_111056" data-name="Path 111056" d="M15.225,24.2H5.03A.956.956,0,0,1,4,23.339V14.857A.956.956,0,0,1,5.03,14h10.2a.956.956,0,0,1,1.03.857v8.482A.956.956,0,0,1,15.225,24.2Z" transform="translate(-4 -9.098)" fill="#0c7238"/>
  <path id="Path_111057" data-name="Path 111057" d="M9.7,19H11.16l1.186,2.3L13.6,19h1.366l-1.882,3.064,1.925,3.064H13.568l-1.293-2.408-1.287,2.408H9.526l1.957-3.075Z" transform="translate(-6.559 -12.064)" fill="#fff"/>
</svg>
