<?xml version="1.0" encoding="utf-8"?>
<!-- Generator: Adobe Illustrator 15.0.0, SVG Export Plug-In . SVG Version: 6.00 Build 0)  -->
<!DOCTYPE svg PUBLIC "-//W3C//DTD SVG 1.1//EN" "http://www.w3.org/Graphics/SVG/1.1/DTD/svg11.dtd">
<svg version="1.1" id="Layer_1" xmlns="http://www.w3.org/2000/svg" xmlns:xlink="http://www.w3.org/1999/xlink" x="0px" y="0px"
	 width="20.016px" height="22.602px" viewBox="0 0 20.016 22.602" enable-background="new 0 0 20.016 22.602" xml:space="preserve">
<g>
	<path fill="#21415B" d="M18.749,8.084h-0.542V5.466c0-0.016-0.003-0.034-0.005-0.05c-0.001-0.104-0.034-0.205-0.105-0.286
		l-4.358-4.979c-0.001-0.001-0.002-0.002-0.003-0.003c-0.026-0.029-0.056-0.053-0.088-0.073c-0.009-0.007-0.02-0.012-0.029-0.018
		c-0.028-0.015-0.057-0.028-0.087-0.037c-0.009-0.002-0.016-0.005-0.024-0.007C13.475,0.005,13.439,0,13.405,0H2.696
		C2.208,0,1.809,0.398,1.809,0.886v7.198H1.267C0.567,8.084,0,8.651,0,9.351v6.587c0,0.7,0.567,1.268,1.267,1.268h0.542v4.51
		c0,0.489,0.398,0.887,0.887,0.887h14.623c0.49,0,0.888-0.397,0.888-0.887v-4.509h0.542c0.7,0,1.268-0.568,1.268-1.268V9.351
		C20.017,8.651,19.449,8.084,18.749,8.084 M2.696,0.886h10.265V5.42c0,0.246,0.2,0.444,0.444,0.444h3.914v2.22H2.696V0.886z
		 M11.676,12.97c-0.872-0.303-1.44-0.784-1.44-1.547c0-0.895,0.747-1.578,1.984-1.578c0.591,0,1.025,0.124,1.337,0.264l-0.266,0.956
		c-0.21-0.101-0.583-0.249-1.096-0.249c-0.512,0-0.761,0.234-0.761,0.505c0,0.335,0.295,0.483,0.971,0.739
		c0.925,0.342,1.361,0.825,1.361,1.564c0,0.878-0.678,1.625-2.115,1.625c-0.599,0-1.19-0.155-1.485-0.318l0.24-0.98
		c0.319,0.163,0.809,0.326,1.314,0.326c0.546,0,0.832-0.225,0.832-0.567C12.554,13.384,12.306,13.197,11.676,12.97 M9.668,14.176
		v0.996H6.395V9.929h1.19v4.247H9.668z M2.592,15.172H1.239l1.515-2.653l-1.461-2.59h1.361l0.458,0.958
		c0.156,0.318,0.273,0.574,0.398,0.87h0.015c0.124-0.334,0.225-0.568,0.357-0.87l0.443-0.958h1.354l-1.478,2.559l1.556,2.684H4.388
		l-0.475-0.949c-0.194-0.365-0.318-0.637-0.466-0.94H3.432c-0.11,0.304-0.242,0.575-0.405,0.94L2.592,15.172z M17.319,21.475H2.695
		v-4.269h14.624V21.475z M17.328,15.172l-0.475-0.95c-0.194-0.365-0.318-0.637-0.466-0.94h-0.016
		c-0.109,0.304-0.242,0.575-0.404,0.94l-0.437,0.95h-1.353l1.516-2.653l-1.461-2.59h1.361l0.459,0.958
		c0.154,0.318,0.271,0.574,0.396,0.87h0.015c0.124-0.334,0.226-0.568,0.357-0.87l0.443-0.958h1.354l-1.478,2.559l1.556,2.684
		L17.328,15.172L17.328,15.172z"/>
</g>
</svg>
