<svg xmlns="http://www.w3.org/2000/svg" width="15.664" height="15.667" viewBox="0 0 15.664 15.667">
  <g id="Group_11593" data-name="Group 11593" transform="translate(0.35 0.35)">
    <path id="Path_15339" data-name="Path 15339" d="M14.734,0H.523A.373.373,0,0,0,.15.373V7.188a.373.373,0,0,0,.373.373A.377.377,0,0,0,.9,7.188V.749H14.364V14.214H7.883a.376.376,0,1,0,0,.752h6.852a.376.376,0,0,0,.376-.376V.376A.376.376,0,0,0,14.734,0Z" transform="translate(-0.147)" fill="#0050a0" stroke="#0050a0" stroke-width="0.7"/>
    <path id="Path_15340" data-name="Path 15340" d="M.05,299.885a.375.375,0,0,0,.373.376H5.635a.376.376,0,0,0,.376-.376v-5.209a.376.376,0,0,0-.376-.376H.426a.373.373,0,0,0-.373.376v5.209ZM.8,295.049H5.262v4.463H.8Z" transform="translate(-0.05 -285.298)" fill="#0050a0" stroke="#0050a0" stroke-width="0.7"/>
    <path id="Path_15341" data-name="Path 15341" d="M219.46,91.321a.377.377,0,0,0,.532,0l4.24-4.243v2.444a.376.376,0,1,0,.752,0V86.176a.376.376,0,0,0-.376-.376h-3.349a.376.376,0,1,0,0,.752H223.7l-4.243,4.24A.373.373,0,0,0,219.46,91.321Z" transform="translate(-212.642 -83.176)" fill="#0050a0" stroke="#0050a0" stroke-width="0.7"/>
  </g>
</svg>
