<svg xmlns="http://www.w3.org/2000/svg" width="19" height="17" viewBox="0 0 19 17">
  <g id="noun-no-view-1768401" transform="translate(-101.604 -57.817)">
    <path id="Path_23718" data-name="Path 23718" d="M107.206,145.425a10.866,10.866,0,0,1-2.055-1.178l-.054-.039c.15.1.071.054.036.027s-.071-.054-.107-.082c-.083-.066-.167-.132-.248-.2-.146-.121-.289-.245-.43-.373a10.919,10.919,0,0,1-.815-.834c-.073-.084-.146-.169-.214-.253-.015-.016-.028-.035-.043-.051.126.148.043.054.017.021s-.068-.086-.1-.132c-.135-.177-.263-.358-.385-.541v.624c.113-.169.229-.336.353-.5.03-.041.062-.08.092-.121s.152-.189.013-.019c.064-.078.128-.156.195-.235a10.727,10.727,0,0,1,.858-.891c.15-.138.3-.274.462-.4.075-.062.152-.124.227-.183l.122-.093.049-.037c-.163.126-.056.041-.019.014a10.91,10.91,0,0,1,1.053-.677,10.781,10.781,0,0,1,1.267-.609l-.154.062a11.162,11.162,0,0,1,2.718-.712l-.171.023a11.559,11.559,0,0,1,2.387-.056.658.658,0,0,0,.454-.181.618.618,0,0,0,.188-.436.646.646,0,0,0-.642-.618,11.666,11.666,0,0,0-8.9,3.078,11.361,11.361,0,0,0-1.667,1.97.586.586,0,0,0,0,.624,11.431,11.431,0,0,0,3.636,3.45,11.162,11.162,0,0,0,1.224.63.72.72,0,0,0,.494.062.645.645,0,0,0,.383-.284.612.612,0,0,0-.227-.848Z" transform="translate(0 -75.802)" fill="#0050a0"/>
    <path id="Path_23719" data-name="Path 23719" d="M317.135,161.278a10.971,10.971,0,0,1,2.1,1.188c.036.027.184.144.019.012.034.027.071.054.107.08.079.062.158.124.235.187.156.128.308.257.456.393a10.448,10.448,0,0,1,.826.844c.073.082.146.169.214.253l.053.064c-.024-.031-.09-.113-.028-.035.034.043.068.086.1.132.139.181.27.364.4.554v-.624c-.113.169-.229.336-.353.5-.03.041-.062.08-.092.122s-.152.189-.013.019c-.064.078-.128.156-.195.235a10.733,10.733,0,0,1-.858.891c-.15.138-.3.274-.462.4-.075.062-.152.124-.227.183l-.122.093-.049.037c.163-.126.056-.041.019-.014a10.912,10.912,0,0,1-1.053.677,10.786,10.786,0,0,1-1.267.609l.154-.062a11.151,11.151,0,0,1-2.72.712l.171-.023a11.461,11.461,0,0,1-2.316.062.633.633,0,0,0-.642.618.646.646,0,0,0,.642.618,11.656,11.656,0,0,0,8.835-3.092,11.3,11.3,0,0,0,1.654-1.96.586.586,0,0,0,0-.624,11.4,11.4,0,0,0-3.7-3.49,11.074,11.074,0,0,0-1.244-.628.721.721,0,0,0-.494-.062.644.644,0,0,0-.383.284.607.607,0,0,0,.231.846Z" transform="translate(-202.214 -98.306)" fill="#0050a0"/>
    <path id="Path_23720" data-name="Path 23720" d="M260.435,194.745a3.129,3.129,0,0,1-.12-.522c.009.058.015.113.024.171a3.033,3.033,0,0,1,0-.788c-.009.058-.015.113-.024.171a3.043,3.043,0,0,1,.2-.738l-.064.154a3.183,3.183,0,0,1,.259-.484c.026-.041.056-.079.083-.118.058-.081-.088.109-.039.049l.045-.056c.058-.071.12-.137.184-.2a2.7,2.7,0,0,1,.2-.182l.045-.036c-.152.128-.088.066-.049.039s.077-.056.118-.083a2.909,2.909,0,0,1,.5-.265l-.154.064a3.132,3.132,0,0,1,.533-.165.647.647,0,0,0,.449-.79.658.658,0,0,0-.79-.449,3.551,3.551,0,0,0-2.446,1.933,3.874,3.874,0,0,0-.334,1.186,3.465,3.465,0,0,0,.146,1.449.654.654,0,0,0,.79.449.647.647,0,0,0,.445-.788Z" transform="translate(-151.439 -127.655)" fill="#0050a0"/>
    <path id="Path_23721" data-name="Path 23721" d="M342.061,237.162a3.007,3.007,0,0,1,.173.668c-.009-.058-.015-.113-.024-.171a3.013,3.013,0,0,1,0,.785c.009-.058.015-.113.024-.171a2.975,2.975,0,0,1-.208.756l.064-.154a3.167,3.167,0,0,1-.257.475c-.026.039-.054.077-.081.116-.058.081.088-.109.041-.051-.015.017-.03.036-.045.056-.058.068-.118.135-.182.2a2.607,2.607,0,0,1-.2.18l-.045.036c-.086.071.107-.077.051-.041-.039.026-.077.056-.116.081a3.068,3.068,0,0,1-.488.263l.154-.064a3.1,3.1,0,0,1-.758.205l.171-.024c-.049.006-.1.011-.148.015a.688.688,0,0,0-.454.188.642.642,0,0,0,.454,1.1,3.646,3.646,0,0,0,2.245-.991,3.48,3.48,0,0,0,.7-.937,3.759,3.759,0,0,0,.37-1.265,3.378,3.378,0,0,0-.2-1.595.694.694,0,0,0-.3-.383.644.644,0,0,0-.494-.064.652.652,0,0,0-.449.792Z" transform="translate(-228.897 -171.768)" fill="#0050a0"/>
    <path id="Path_23722" data-name="Path 23722" d="M220.722,58.122l-.246.423c-.222.381-.444.764-.667,1.144l-.99,1.7q-.6,1.032-1.2,2.065l-1.322,2.27q-.668,1.145-1.335,2.291-.619,1.064-1.24,2.128l-1.047,1.8-.758,1.3c-.119.205-.24.408-.357.615,0,.008-.01.017-.014.025a.64.64,0,0,0,.222.858.619.619,0,0,0,.842-.226l.246-.423c.222-.381.443-.764.667-1.144l.99-1.7q.6-1.032,1.2-2.065l1.322-2.27q.668-1.145,1.335-2.291.619-1.064,1.24-2.128l1.047-1.8.758-1.3c.119-.205.24-.408.357-.615,0-.008.01-.017.014-.025a.64.64,0,0,0-.222-.858A.622.622,0,0,0,220.722,58.122Z" transform="translate(-105.557)" fill="#0050a0"/>
  </g>
</svg>
