<svg xmlns="http://www.w3.org/2000/svg" width="36.998" height="43.869" viewBox="0 0 36.998 43.869">
  <g id="file" transform="translate(-40.097)">
    <g id="Group_10945" data-name="Group 10945" transform="translate(40.097)">
      <g id="Group_10944" data-name="Group 10944" transform="translate(0)">
        <path id="Path_13262" data-name="Path 13262" d="M74.981,5.814h-3.7v-3.7A2.12,2.12,0,0,0,69.167,0H42.211A2.12,2.12,0,0,0,40.1,2.114V35.941a2.12,2.12,0,0,0,2.114,2.114h3.7v3.7a2.12,2.12,0,0,0,2.114,2.114H66a6.169,6.169,0,0,0,3.653-1.449l5.906-5.559a5.613,5.613,0,0,0,1.54-3.563V7.928A2.121,2.121,0,0,0,74.981,5.814ZM45.911,7.928V36.469h-3.7a.536.536,0,0,1-.528-.528V2.114a.536.536,0,0,1,.528-.528H69.167a.536.536,0,0,1,.528.528v3.7H48.025A2.12,2.12,0,0,0,45.911,7.928ZM74.467,35.707l-5.906,5.559a2.805,2.805,0,0,1-.452.331V36.734a1.325,1.325,0,0,1,1.321-1.321h5.288A2.219,2.219,0,0,1,74.467,35.707ZM75.508,33.3a2.465,2.465,0,0,1-.072.528H69.43a2.913,2.913,0,0,0-2.907,2.907v5.486a2.764,2.764,0,0,1-.528.064H48.025a.535.535,0,0,1-.528-.528V7.928a.535.535,0,0,1,.528-.528H74.98a.536.536,0,0,1,.528.528Z" transform="translate(-40.097 0)" fill="#323250"/>
      </g>
    </g>
    <g id="Group_10947" data-name="Group 10947" transform="translate(53.047 13.213)">
      <g id="Group_10946" data-name="Group 10946">
        <path id="Path_13263" data-name="Path 13263" d="M207.355,154.216H192.028a.793.793,0,0,0,0,1.586h15.328a.793.793,0,0,0,0-1.586Z" transform="translate(-191.235 -154.216)" fill="#323250"/>
      </g>
    </g>
    <g id="Group_10949" data-name="Group 10949" transform="translate(53.047 23.784)">
      <g id="Group_10948" data-name="Group 10948">
        <path id="Path_13264" data-name="Path 13264" d="M207.355,277.59H192.028a.793.793,0,1,0,0,1.586h15.328a.793.793,0,1,0,0-1.586Z" transform="translate(-191.235 -277.59)" fill="#323250"/>
      </g>
    </g>
    <g id="Group_10951" data-name="Group 10951" transform="translate(53.047 29.07)">
      <g id="Group_10950" data-name="Group 10950" transform="translate(0)">
        <path id="Path_13265" data-name="Path 13265" d="M200.485,339.277h-8.457a.793.793,0,0,0,0,1.586h8.457a.793.793,0,0,0,0-1.586Z" transform="translate(-191.236 -339.277)" fill="#323250"/>
      </g>
    </g>
    <g id="Group_10953" data-name="Group 10953" transform="translate(53.047 18.499)">
      <g id="Group_10952" data-name="Group 10952">
        <path id="Path_13266" data-name="Path 13266" d="M207.355,215.9H192.028a.793.793,0,0,0,0,1.586h15.328a.793.793,0,0,0,0-1.586Z" transform="translate(-191.235 -215.903)" fill="#323250"/>
      </g>
    </g>
  </g>
</svg>
