<svg xmlns="http://www.w3.org/2000/svg" width="17.025" height="21.488" viewBox="0 0 17.025 21.488">
  <g id="surface1" transform="translate(-0.5)">
    <path id="Path_220" data-name="Path 220" d="M12.08.166A.52.52,0,0,0,11.706,0H3.324A2.836,2.836,0,0,0,.5,2.818V18.67a2.836,2.836,0,0,0,2.824,2.819H14.7a2.836,2.836,0,0,0,2.824-2.819V6.083a.558.558,0,0,0-.151-.363Zm.15,1.666,3.545,3.722h-2.3A1.236,1.236,0,0,1,12.23,4.318ZM14.7,20.45H3.324a1.8,1.8,0,0,1-1.786-1.78V2.818a1.8,1.8,0,0,1,1.786-1.78h7.869v3.28a2.271,2.271,0,0,0,2.279,2.273h3.016V18.67A1.794,1.794,0,0,1,14.7,20.45Zm0,0" fill="#fff"/>
    <path id="Path_221" data-name="Path 221" d="M98.234,401.934H89.691a.519.519,0,1,0,0,1.038H98.24a.519.519,0,1,0-.005-1.038Zm0,0" transform="translate(-84.95 -385.065)" fill="#fff"/>
    <path id="Path_222" data-name="Path 222" d="M.907,4.137l2.138-2.3V7.505a.519.519,0,1,0,1.038,0V1.837l2.138,2.3a.518.518,0,0,0,.758-.706L3.939.166a.515.515,0,0,0-.758,0L.139,3.431a.517.517,0,0,0,.026.732A.53.53,0,0,0,.907,4.137Zm0,0" transform="translate(5.448 7.147)" fill="#fff"/>
  </g>
</svg>
