<svg xmlns="http://www.w3.org/2000/svg" width="624.659" height="416.831" viewBox="0 0 624.659 416.831">
  <g id="Group_29605" data-name="Group 29605" transform="translate(-648 -287.585)">
    <g id="Group_29601" data-name="Group 29601" transform="translate(-19.89)">
      <g id="OBJECTS" transform="translate(618.609 256.585)">
        <path id="Path_118650" data-name="Path 118650" d="M75.252,413.885s-63.467-73.968,8.027-154.461c57.628-64.882,39.228-89.974,36.571-133.726C117.6,88.663,159.6,33.9,222.446,31.17c103.014-4.48,132.248,81.218,186.941,78.876s75.8-74.081,139.331-66.536c117.881,14,101.993,125.724,84.813,209.233s34.441,112.022-2.706,161.209" fill="#b5d0ff" opacity="0.2"/>
        <path id="Path_118653" data-name="Path 118653" d="M205.718,370.59c3.116-8.008,3.677-16.833,2.92-25.325-.611-6.85-1.788-14.145-4.389-20.534-2.306-5.664-6.857-3.216-11.249-5.469-2.806-1.44-3.792-4.991-3.793-8.145,0-3.044.643-6.154-.034-9.166-.5-2.223-2.076-4.778-4.372-5.483-2.853-.876-5.3,1.958-7.958-.316a8.545,8.545,0,0,1-2.364-4.209,66.45,66.45,0,0,0-3.942-10.716c-1.536-3.126-4.223-6.537-7.665-6-3.3.516-4.895,4.363-5.223,7.689-.791,8.005,2.185,16.038,6.793,22.631a23.353,23.353,0,0,1,3.362,5.63c.705,2.078.561,4.618-1,6.161-.84.831-1.988,1.283-2.869,2.07-2.443,2.185-2.061,6.225-.44,9.074,4.173,7.334,13.117,6.4,19.163,11.348,6.854,5.613,14.97,16.486,13.646,25.964" fill="#b5d0ff"/>
        <path id="Path_118654" data-name="Path 118654" d="M198.606,357.5a57.414,57.414,0,0,0-10.471-33.117c-4.254-6.042-9.612-11.21-14.1-17.082s-9.866-13.963-9.866-25.873" fill="none" stroke="#fff" stroke-linecap="round" stroke-linejoin="round" stroke-width="0.891" opacity="0.5"/>
        <path id="Path_118655" data-name="Path 118655" d="M342.218,413.874c-67.155-.034-163.018.212-225.506-.034-2.1-.008-8.813-2.209,2.592-9.564,9.659-6.228,40.189-.625,40.189-.625s-7.107-2.849-7.074-6.526,2.82-6.908,6.166-8.434,7.156-1.636,10.828-1.426a69.017,69.017,0,0,1,21.809,4.88,6.325,6.325,0,1,1,7.335-10.269c-4.689-6.351-11.939-34.495,10.342-46.9,27.927-15.546,49.136-2.753,53.662,6.6,2.3-9.184,12.833-16.138,19.774-17.862,15.829-3.93,26.14-2.765,40.917,4.136,5.227,2.441,12.227,10.779,15.7,15.385,5.443,7.213,6.291,16.806,6.591,25.837q.338,10.168.091,20.344" fill="#b5d0ff"/>
        <path id="Path_118656" data-name="Path 118656" d="M362.44,413.874c67.155-.034,163.018.212,225.506-.034,2.1-.008,8.813-2.209-2.592-9.564-9.659-6.228-40.189-.625-40.189-.625s7.107-2.849,7.074-6.526-2.82-6.908-6.166-8.434-7.156-1.636-10.828-1.426a69.017,69.017,0,0,0-21.809,4.88,6.325,6.325,0,1,0-7.335-10.269c4.689-6.351,11.939-34.495-10.342-46.9-27.927-15.546-49.136-2.753-53.662,6.6-2.3-9.184-12.833-16.138-19.774-17.862-15.829-3.93-26.14-2.765-40.917,4.136-5.228,2.441-12.227,10.779-15.7,15.385-5.443,7.213-6.291,16.806-6.591,25.837q-.338,10.168-.091,20.344" fill="#b5d0ff"/>
        <path id="Path_118673" data-name="Path 118673" d="M392.229,404.542H313.04l8.6-33.817,1.949-7.669,3.785-14.852h50.518l3.785,14.852,1.949,7.669Z" fill="#0453a2"/>
        <path id="Path_118674" data-name="Path 118674" d="M383.627,370.724H321.641l1.949-7.669h58.087Z" fill="#004181"/>
        <path id="Path_118675" data-name="Path 118675" d="M520.256,161.811V354.926a8.327,8.327,0,0,1-8.323,8.323H193.346a8.319,8.319,0,0,1-8.323-8.323V161.811a8.319,8.319,0,0,1,8.323-8.323H511.933A8.327,8.327,0,0,1,520.256,161.811Z" fill="#0050a0"/>
        <path id="Path_118676" data-name="Path 118676" d="M422.617,413.885H282.647a6.081,6.081,0,0,1-6.081-6.081h0a6.081,6.081,0,0,1,6.081-6.081h139.97A6.081,6.081,0,0,1,428.7,407.8h0A6.081,6.081,0,0,1,422.617,413.885Z" fill="#004181"/>
        <rect id="Rectangle_24062" data-name="Rectangle 24062" width="322.348" height="170.237" transform="translate(191.155 159.597)" fill="#fff"/>
        <path id="Path_118677" data-name="Path 118677" d="M352.616,353.729h0A7.751,7.751,0,0,1,344.887,346h0a7.752,7.752,0,0,1,7.729-7.729h0A7.751,7.751,0,0,1,360.345,346h0A7.751,7.751,0,0,1,352.616,353.729Z" fill="#004181"/>
        <line id="Line_4786" data-name="Line 4786" x2="585.389" transform="translate(59.945 413.885)" fill="none" stroke="#dfdbf8" stroke-miterlimit="10" stroke-width="1"/>
        <ellipse id="Ellipse_4150" data-name="Ellipse 4150" cx="45.267" cy="6.887" rx="45.267" ry="6.887" transform="translate(189.606 434.056)" fill="#b5d0ff" opacity="0.5"/>
        <path id="Path_118689" data-name="Path 118689" d="M236.247,422.626a22.414,22.414,0,0,1-1.37,5.716l.858,4.736,2.713.749,6.244-7.333a34.456,34.456,0,0,0-.23-3.58l-8.214-.289Z" transform="translate(-40)" fill="#f9daca"/>
        <path id="Path_118690" data-name="Path 118690" d="M259.75,440.058a1.909,1.909,0,0,1-.364.293c-1.5.9-5.827,1.315-8.912,1.264a27.344,27.344,0,0,1-8.548-1.892c-1.477-.577-7.111-.223-7.739-.961s-.324-3.1-.324-3.1c-.556-2.883.1-7.364.607-7.587s.8,1.649,1.234,2.246a2.342,2.342,0,0,0,3.2.435c1.477-.91,1.77-3.166,3.53-3.814a4.573,4.573,0,0,1,2.549-.415c2.074.931,5.574,4.744,7.87,6.15s5.564,2.246,6.2,2.7.536,1.7.536,1.7,1.133,1.861.162,2.974Z" transform="translate(-40)" fill="#323250"/>
        <path id="Path_118691" data-name="Path 118691" d="M259.75,440.058a1.909,1.909,0,0,1-.364.293c-1.5.9-5.827,1.315-8.912,1.264a27.344,27.344,0,0,1-8.548-1.892c-1.477-.577-7.111-.223-7.739-.961s-.324-3.1-.324-3.1c1.74-.172,6.029.587,8.275,1.123s3.156,2.023,9.833,2.053,7.617-1.76,7.617-1.76S260.721,438.945,259.75,440.058Z" transform="translate(-40)" fill="#25253b"/>
        <path id="Path_118692" data-name="Path 118692" d="M209.394,420.22a87.2,87.2,0,0,1-1.446,9.421l1,5.531,3.168.875,7.292-8.563s.558-5.581.42-5.467l-10.435-1.8Z" transform="translate(-40)" fill="#f9daca"/>
        <path id="Path_118693" data-name="Path 118693" d="M237,443.323a2.23,2.23,0,0,1-.425.343c-1.749,1.051-6.8,1.536-10.408,1.477a31.936,31.936,0,0,1-9.982-2.209c-1.725-.673-8.305-.26-9.038-1.122s-.378-3.615-.378-3.615c-.65-3.367.118-8.6.709-8.86s.933,1.926,1.441,2.623a2.736,2.736,0,0,0,3.733.508c1.725-1.063,2.067-3.7,4.123-4.454a5.342,5.342,0,0,1,2.977-.484c2.422,1.087,6.509,5.541,9.191,7.183s6.5,2.623,7.242,3.154.626,1.985.626,1.985,1.323,2.174.189,3.473Z" transform="translate(-40)" fill="#323250"/>
        <path id="Path_118694" data-name="Path 118694" d="M237,443.323a2.23,2.23,0,0,1-.425.343c-1.749,1.051-6.8,1.536-10.408,1.477a31.936,31.936,0,0,1-9.982-2.209c-1.725-.673-8.305-.26-9.038-1.122s-.378-3.615-.378-3.615c2.032-.2,7.041.685,9.664,1.311s3.686,2.363,11.483,2.4,8.9-2.056,8.9-2.056S238.131,442.024,237,443.323Z" transform="translate(-40)" fill="#25253b"/>
        <path id="Path_118695" data-name="Path 118695" d="M252.518,244.659s4.488-2.965.845-8.028c-1.869-2.6-.341-3.756-1.171-5.853s-1.707-2.2-1.317-4.341,0-2.244-.781-3.219,1.63-2.74.216-4.3-2.543-.768-2.85-1.748c-.562-1.791,1.366-2.341,0-3.854s-1.61-.976-2.293-3.219-.452-4.815-2.138-7.423c-1.939-3-1.277-2.646-3.765-4.89s-1.235-3.463-3.625-5.609a7.765,7.765,0,0,0-8.764-.906l-.643.363a3.879,3.879,0,0,1-3.337.228,5.1,5.1,0,0,0-2.849-.347c-2.2.439-.975,2-3.171,3.024-2.672,1.247-4.259-.541-5.027,4.574a3.287,3.287,0,0,1-.982,1.873c-1.821,1.741-3.014,1.39-2.917,4.334.1,2.976,1.707,3.171.975,5.219s-1.9,2.81-2.536,5.4,1.024,1.912.878,4.351-1.415,2.488-.049,4.146,1.8,2.1,1.317,3.561-1.658,2.634-1.561,4.049.88,1.219-.73,3.61-1.855,7.122-.928,10.585" transform="translate(-40)" fill="#323250"/>
        <path id="Path_118696" data-name="Path 118696" d="M208.223,304.677s42.25,8.78,39.031-1.171a42.4,42.4,0,0,1-2.084-17.584l-33.822-1.147c.035.527.059,1.054.082,1.581a46.934,46.934,0,0,1-1.276,12.222A38.978,38.978,0,0,1,208.223,304.677Z" transform="translate(-40)" fill="#f9daca"/>
        <path id="Path_118697" data-name="Path 118697" d="M210.154,298.577c9-1.188,9-10.7,9-10.7l-3.512-.539-4.214-.983A46.934,46.934,0,0,1,210.154,298.577Z" transform="translate(-40)" fill="#f4ccba"/>
        <path id="Path_118698" data-name="Path 118698" d="M219.472,236.394s-7.137,1.948-14.49,4.875c0,0,4.684,13.511,1.621,22.518,0,0,4.863,17.475,3.962,23.6,0,0,12.873,4.776,35.312.093,0,0,.538-20.135,3.376-25,0,0-3.918-13.511,0-23.1l-16.538-3.329" transform="translate(-40)" fill="#525252"/>
        <path id="Path_118699" data-name="Path 118699" d="M205.4,320.559c.242,8.4,2.98,38,3.95,45.545-1.577,13.875-.691,55.371-.691,55.371,8.86,2.819,13.733,1.151,13.733,1.151s4.238-42.5,6.232-54.9c.727-7.79-.006-40.474-.006-40.474,2.309,7.537,10.9,37.815,10.9,37.815s-1.182,6.57-1.772,10.534c-1.771,11.953-4.255,46.106-4.255,46.106,5.45,3.057,14.114,2.319,14.114,2.319s11.307-54.588,11.307-59.943c0-4.529-1.977-17.732-1.979-17.763-1.109-18.892-8.854-41.13-9.855-44.419-7.494.77-25.941,2.245-38.126-.411-2.58,5.413-3.693,14.476-3.555,19.072Z" transform="translate(-40)" fill="#323250"/>
        <path id="Path_118700" data-name="Path 118700" d="M246.713,303.084c-4.665.183-9.3,1.252-13.981,1.5a92.2,92.2,0,0,1-10.151.019,73.841,73.841,0,0,1-7.867-.846c-1.614-.268-3.536-1.043-5.171-.884a.225.225,0,0,0-.112.415c1.372.861,3.509.96,5.076,1.222a65.914,65.914,0,0,0,7.784.836,84.24,84.24,0,0,0,10.829-.206c4.444-.364,9.347-.637,13.6-2.033.012,0,.011-.024,0-.023h0Z" transform="translate(-40)" fill="#2b269b"/>
        <path id="Path_118701" data-name="Path 118701" d="M231.4,306.206c-.039,5.191.433,10.353.066,15.547-.014.206.306.2.32,0a92.894,92.894,0,0,0-.246-15.547.07.07,0,0,0-.141,0Z" transform="translate(-40)" fill="#2b269b"/>
        <path id="Path_118702" data-name="Path 118702" d="M231.6,321.655c-.982.379-2.1.476-3.04.951a.13.13,0,0,0,.065.24,6.344,6.344,0,0,0,3.053-1.005c.094-.058.033-.229-.078-.186Z" transform="translate(-40)" fill="#2b269b"/>
        <path id="Path_118703" data-name="Path 118703" d="M229.411,305.093s-.234,7.1-.469,14.207c-.1,3.552-.177,7.106-.205,9.771s0,4.443,0,4.443-.1-1.775-.156-4.441-.112-6.221-.138-9.777c-.016-7.111-.031-14.223-.031-14.223l1,.021Z" transform="translate(-40)" fill="#2b269b"/>
        <path id="Path_118704" data-name="Path 118704" d="M249.493,311.8c-2.559-.14-4.667-.606-6.594-2.414-1.584-1.486-1.907-3.331-2.546-5.3a.192.192,0,0,0-.376.051c-.107,4.971,5.025,8.28,9.516,7.7a.02.02,0,0,0,0-.039Z" transform="translate(-40)" fill="#2b269b"/>
        <path id="Path_118705" data-name="Path 118705" d="M206.592,312.1c4.493.58,9.623-2.726,9.516-7.7a.192.192,0,0,0-.376-.051c-.635,1.955-.952,3.83-2.546,5.3-1.954,1.8-4.008,2.273-6.594,2.414a.02.02,0,0,0,0,.039h0Z" transform="translate(-40)" fill="#2b269b"/>
        <path id="Path_118706" data-name="Path 118706" d="M249.245,239.385s4.1.75,5.184,11.664c.774,7.813-2.87,37.829-2.87,37.829s-4.509-2.885-5.826-7.714.073-12.951-.512-16.463a82.139,82.139,0,0,1-.795-14c.2-3.8.776-9.013,4.819-11.319Z" transform="translate(-40)" fill="#f9daca"/>
        <path id="Path_118707" data-name="Path 118707" d="M217.167,237.069a10.869,10.869,0,0,0,9.834,4.6,13.544,13.544,0,0,0,9.834-4.788l-.691-.152a4.153,4.153,0,0,1-3.2-3.149c-.094-.41-.176-.8-.258-1.171-.55-2.658-.726-4.261-.726-4.261l-2.646-.62-8.768-2.072c.878,4.191.667,6.872.211,8.535a4.076,4.076,0,0,1-2.8,2.845l-.8.234Z" transform="translate(-40)" fill="#f9daca"/>
        <path id="Path_118708" data-name="Path 118708" d="M222.447,227.492a36.893,36.893,0,0,0,10.244,4.917c-.55-2.658-.726-4.261-.726-4.261l-2.646-.62-2.2-.234-4.671.2Z" transform="translate(-40)" fill="#e2bdac"/>
        <path id="Path_118709" data-name="Path 118709" d="M236.947,201.941s3.513,14.051,1.892,19.456-4.053,9.052-5.54,9.66-12.9-4.053-14.187-5.472-6.823-14.592-5.877-20.2S231.407,191,236.947,201.941Z" transform="translate(-40)" fill="#f9daca"/>
        <rect id="Rectangle_24083" data-name="Rectangle 24083" width="76.516" height="76.516" transform="translate(175.147 240.737) rotate(-5.846)" fill="#0050a0"/>
        <rect id="Rectangle_24084" data-name="Rectangle 24084" width="69.35" height="60.013" transform="translate(179.055 243.732) rotate(-5.846)" fill="#fff"/>
        <path id="Path_118713" data-name="Path 118713" d="M204.995,241.264s-5.854,3.8-3.951,15.658,3.658,22.975,3.951,26.633,2.634,13.756,6.732,13.024,5.634-5.853,5.927-8.561-.8-9.439-.512-10.171,3.241-3.146,3.607-4.39,4.509.487,5.46-7.2c0,0,4.164,1.054,5.481-.629s-5.111-2.939-6.732-3.4c-2.049-.585-8.622-.48-9.426-.3s-.951,2.451-1.354,4.573-1.842,6.928-1.842,6.928l-2.121-14.318S210.7,245.02,204.995,241.264Z" transform="translate(-40)" fill="#f9daca"/>
        <path id="Path_118714" data-name="Path 118714" d="M295.234,261.495a3.843,3.843,0,0,1-1.843-.307.091.091,0,0,0-.035-.012c-1.5-.6-3.072-3.19-3.072-3.19a9.663,9.663,0,0,1-4.737-2.351c-2.5-2.15-1.961-4.832.343-6.273s7.206-1.217,7.206-1.217c1.985.059,2.138.626,3.284,4.56v.023c.969,6.131-.3,8.624-1.146,8.766Z" transform="translate(-40)" fill="#f9daca"/>
        <path id="Path_118715" data-name="Path 118715" d="M214.178,266.508s-.2,1.065-.561,2.648c-.188.789-.385,1.716-.632,2.7l-.765,3.082-.811,3.07-.727,2.673-.514,1.891-.184.721s.1-1.083.425-2.676c.167-.795.343-1.727.58-2.713l.748-3.089.83-3.068c.266-.979.552-1.882.78-2.661.474-1.553.832-2.576.832-2.576Z" transform="translate(-40)" fill="#dda692"/>
        <path id="Path_118716" data-name="Path 118716" d="M221.592,197.441s1.075,4.553,2.831,5.358,3.2-.219,4.089.878,1.472,3.658,3.228,3.146,3.293-1.11,4.1.067,1.1,4.47,4.76,4.689c2.913.175-1.467-7.244-1.467-7.244s-2.561-4.081-2.927-4.382-2.762-3.163-2.9-3.236a22.932,22.932,0,0,0-3.9-.788c-.577.073-4.39,0-4.39,0l-3.415,1.512Z" transform="translate(-40)" fill="#323250"/>
        <path id="Path_118717" data-name="Path 118717" d="M223.128,199.636s1.295,3.163-1.024,4.792c-1.191.837-3.565,4.639-3.428,6.736s.723,2.39.43,3.561-1,4.178-5.27,3.349c-.725-.141-.047-4.324-.047-4.617s-1.173-4.358-1.124-5.139-.443-5.9.875-6.927,4.637-2.1,4.833-2.39a23.891,23.891,0,0,1,3.219-1.561" transform="translate(-40)" fill="#323250"/>
        <path id="Path_118718" data-name="Path 118718" d="M208.628,204.209c-1.176,2.374-.168,4.839-1.592,7.346-.87,1.532-2.229,3.031-2.087,4.924.068.906.584,1.4.872,2.216.854,2.415-.3,3.079-.01,5,.292,1.941,2.619,3.627,3.927,4.922.12.119.287-.057.183-.183a29.9,29.9,0,0,1-2.944-3.308c-1.507-2.576-.487-2.312-.306-4.273.126-1.36-.51-1.757-.95-2.974-1.312-3.623,1.447-4.963,2.411-7.761.654-1.9.122-3.945.5-5.907,0,0,0,0,0,0h0Z" transform="translate(-40)" fill="#383493"/>
        <path id="Path_118719" data-name="Path 118719" d="M242.468,204.4a5.425,5.425,0,0,1,3.286,2.886,15.5,15.5,0,0,1,.3,2.335,4.081,4.081,0,0,0,.583,1.525c.661.929,1.866,1.238,2.268,2.415.525,1.542.107,3.8.227,5.443a.079.079,0,0,0,.157,0c.109-1.667.487-3.895-.054-5.534-.66-2-2.274-1.977-2.844-4.665-.49-2.311-.991-4.526-3.917-4.46a.028.028,0,0,0-.007.054h0Z" transform="translate(-40)" fill="#383493"/>
        <ellipse id="Ellipse_4151" data-name="Ellipse 4151" cx="55.44" cy="6.887" rx="55.44" ry="6.887" transform="translate(448.94 434.056)" fill="#b5d0ff" opacity="0.5"/>
        <path id="Path_118720" data-name="Path 118720" d="M541.348,205.655l-16.368.6a30.058,30.058,0,0,1,.012,4.864,25.952,25.952,0,0,1-.4,3.179,15,15,0,0,1-1.015,3.436c-.35.622-1.24,1.277-3.022,1.169,0,0,.184,4.818,7.68,5.694,7.278.85,9.579-2.8,9.579-2.8s-.094-.063-.237-.184a4.081,4.081,0,0,1-1.358-2.291c-.1-.467,1.906-9.74,5.133-13.663Z" transform="translate(-30)" fill="#fbab99"/>
        <path id="Path_118721" data-name="Path 118721" d="M536.083,209.457c-3.409,3.173-9.611,4.51-11.494,4.842a25.964,25.964,0,0,0,.4-3.179C530.175,209.41,538.987,206.739,536.083,209.457Z" transform="translate(-30)" fill="#ef998b"/>
        <path id="Path_118722" data-name="Path 118722" d="M521.412,185.872a13.006,13.006,0,0,0-1.237,2.8c-1.495,4.584-6.464,20.839-2.609,23.182,4.5,2.733,12.666.633,16.823-1.52,7.9-4.091,10.3-5.14,11.336-13.991,1.433-12.284-17.367-21.78-24.313-10.467Z" transform="translate(-30)" fill="#fbab99"/>
        <path id="Path_118723" data-name="Path 118723" d="M514.412,183.392s6.414,10.133,19.448,6.37c0,0-1.964,2.9-1.516,5.628s1.4,4.4,1.209,6.058l1.325-.229s1.428-3.768,4.609-2.217-.771,9.655-.074,9.852,5.125-4,7.548-9.771,3.012-10.208-2.642-12.16a10.146,10.146,0,0,0-6.712-7.113c-5.6-1.767-23.194,3.582-23.194,3.582Z" transform="translate(-30)" fill="#323250"/>
        <path id="Path_118724" data-name="Path 118724" d="M520.112,420.206a83.157,83.157,0,0,0,1.379,8.985l-.955,5.276-3.021.834-6.955-8.168s.1-5.649.234-5.54Z" transform="translate(-30)" fill="#f9daca"/>
        <path id="Path_118725" data-name="Path 118725" d="M493.786,442.241a2.123,2.123,0,0,0,.406.327c1.668,1,6.49,1.465,9.927,1.409a30.456,30.456,0,0,0,9.521-2.107c1.645-.642,7.921-.248,8.62-1.07s.361-3.448.361-3.448c.62-3.211-.113-8.2-.676-8.451s-.89,1.836-1.375,2.5a2.609,2.609,0,0,1-3.56.484c-1.645-1.014-1.972-3.527-3.932-4.248a5.1,5.1,0,0,0-2.839-.462c-2.31,1.037-6.208,5.285-8.766,6.851s-6.2,2.5-6.907,3.008-.6,1.893-.6,1.893-1.262,2.073-.18,3.313Z" transform="translate(-30)" fill="#323250"/>
        <path id="Path_118726" data-name="Path 118726" d="M493.786,442.241a2.123,2.123,0,0,0,.406.327c1.668,1,6.49,1.465,9.927,1.409a30.456,30.456,0,0,0,9.521-2.107c1.645-.642,7.921-.248,8.62-1.07s.361-3.448.361-3.448c-1.938-.192-6.715.654-9.217,1.251s-3.515,2.254-10.952,2.287-8.484-1.961-8.484-1.961-1.262,2.073-.18,3.313Z" transform="translate(-30)" fill="#25253b"/>
        <path id="Path_118727" data-name="Path 118727" d="M569.754,414.829a83.14,83.14,0,0,0,3.525,8.379l.358,5.349-2.727,1.544-8.734-6.229s-1.276-5.5-1.122-5.43l8.7-3.615Z" transform="translate(-30)" fill="#f9daca"/>
        <path id="Path_118728" data-name="Path 118728" d="M549.584,442.611a2.131,2.131,0,0,0,.473.218c1.862.567,6.651-.159,9.971-1.051a30.457,30.457,0,0,0,8.722-4.362c1.439-1.023,7.622-2.169,8.1-3.137s-.49-3.432-.49-3.432c-.181-3.266-2.106-7.929-2.713-8.032s-.416,2-.724,2.761a2.609,2.609,0,0,1-3.336,1.337c-1.842-.583-2.771-2.941-4.848-3.163a5.1,5.1,0,0,0-2.867.243c-1.988,1.568-4.735,6.637-6.835,8.779s-5.4,3.935-5.967,4.6-.118,1.981-.118,1.981-.719,2.318.632,3.257Z" transform="translate(-30)" fill="#323250"/>
        <path id="Path_118729" data-name="Path 118729" d="M549.584,442.611a2.131,2.131,0,0,0,.473.218c1.862.567,6.651-.159,9.971-1.051a30.457,30.457,0,0,0,8.722-4.362c1.439-1.023,7.622-2.169,8.1-3.137s-.49-3.432-.49-3.432c-1.926.286-6.354,2.269-8.635,3.457s-2.861,3.042-10.066,4.885-8.706.164-8.706.164S548.233,441.672,549.584,442.611Z" transform="translate(-30)" fill="#25253b"/>
        <path id="Path_118730" data-name="Path 118730" d="M460.965,175.215c.022-.684.922-.421,1.189.122a3.924,3.924,0,0,1,.16.474c-.164-1.112-.284-2.021-.277-2.245.021-.649.848-.47,1.162.014-.052-.449-.083-.788-.081-.933.012-.832.919-.555,1.2.11a9.849,9.849,0,0,1,.285,1.128,5.631,5.631,0,0,1-.053-.626c.022-.684.816-.569,1.083-.025a8.646,8.646,0,0,1,.335,1.3c.155.673.4,1.39.547,2.069.13.616,1.1,3.487,2.58,3.678,2.268.293.535-3.468,2.035-4.468.471-.314,1.243,2.65,1.421,4.347a18.945,18.945,0,0,1,.18,3.563,23.543,23.543,0,0,0-.365,3.076,12.61,12.61,0,0,0,1.512,2.878l-5.525,1.747a22.8,22.8,0,0,0-2.327-3.648,12.914,12.914,0,0,1-3.908-5.749,25.053,25.053,0,0,1-1.02-4.5s-.137-2.083-.13-2.307Z" transform="translate(-30)" fill="#ffb6ac"/>
        <path id="Path_118731" data-name="Path 118731" d="M517.854,219.413a229.229,229.229,0,0,1-28.512-10.25c-8.631-10.2-17.095-21.57-17.745-22.636-1.474.708-4.621,2.474-4.621,2.474s12.012,23.654,16.424,28.547c5.04,4.209,12.407,13.419,29.307,16.3,7.175-9.757,5.147-14.431,5.147-14.431Z" transform="translate(-30)" fill="#ffb6ac"/>
        <path id="Path_118732" data-name="Path 118732" d="M505.728,361.16c-1.033-13.5,3.636-55.822,4.091-59.463.438-3.642,3.016-4.106,4.973-4.7,9.763-2.936,21.342,12.207,18.258,25.806-.043.219,1.469,1.511,1.408,1.746-1.835,7.876-9.244,34.534-10.6,39.34,4.527,17.122-.066,46.641-2.007,59.986-5.46.77-12.663-.513-12.663-.513S506.761,374.66,505.728,361.16Z" transform="translate(-30)" fill="#323250"/>
        <path id="Path_118733" data-name="Path 118733" d="M511.386,287.288a46.327,46.327,0,0,0,11.1.724c9.382-.246,21.281-5,21.281-5,11.969,12.953,5.389,28.121,5.8,33.109s2.8,30.285,3.876,43.487c11.529,17.293,18.393,57.583,18.436,57.772a33.624,33.624,0,0,1-11.648,3.548s-20.781-43.606-24.937-55.855c-3.77-11.112-13.508-44.843-13.689-44.812l-12.416,2.124c-.027-21.488,2.2-35.1,2.2-35.1Z" transform="translate(-30)" fill="#323250"/>
        <path id="Path_118734" data-name="Path 118734" d="M552.029,301.842c-2.338.434-4.613.774-6.842,1.037-21.084,2.632-36.967-1.269-36.967-1.269s-1.8-51.27,6.053-78.516c1.409-4.907,3.916-5.9,8.808-5.449,4.438,7.858,13.5,1.154,13.5,1.154,3.746,1.857,9.727,4.466,12.586,6.84,1.9,1.578-1.458,24.445-.619,37.394.557,8.595,2.291,31.286,3.483,38.809Z" transform="translate(-30)" fill="#525252"/>
        <path id="Path_118735" data-name="Path 118735" d="M519.427,217.706s-12.067-2.83-19.04-4.557c-5.367,6.264-4.766,16.357-4.766,16.357s11.168,7.1,19.332,7.781A114.226,114.226,0,0,1,519.427,217.706Z" transform="translate(-30)" fill="#525252"/>
        <path id="Path_118736" data-name="Path 118736" d="M517.854,219.413s-5.031,6.365-6.684,17.188c-5.63-1.1-14.437-5.965-15.549-7.1,2.479.8,13.056,4.736,14.5,1.479a50.429,50.429,0,0,1,7.729-11.572Z" transform="translate(-30)" fill="#363636"/>
        <path id="Path_118737" data-name="Path 118737" d="M520.019,314.764l.674,1.985c.409,1.269,1.033,3.071,1.715,5.252s1.514,4.715,2.336,7.45l2.6,8.563,2.506,8.589c.813,2.737,1.5,5.312,2.148,7.5l2.1,7.322-.774-1.95c-.456-1.254-1.141-3.035-1.866-5.2s-1.6-4.691-2.442-7.421l-2.633-8.556-2.471-8.6c-.786-2.746-1.445-5.331-2.044-7.537s-1.031-4.063-1.363-5.355Z" transform="translate(-30)" fill="#25253b"/>
        <rect id="Rectangle_24085" data-name="Rectangle 24085" width="70.407" height="70.407" transform="translate(480.438 235.489) rotate(4.515)" fill="#0050a0"/>
        <rect id="Rectangle_24086" data-name="Rectangle 24086" width="63.813" height="55.221" transform="translate(483.48 238.847) rotate(4.515)" fill="#fff"/>
        <path id="Path_118741" data-name="Path 118741" d="M542.76,248.871s5.507,16.8,6.72,18.48,7.747,1.867,8.4-2.053-2.053-18.573-2.053-18.573" transform="translate(-30)" fill="#fbab99"/>
        <path id="Path_118742" data-name="Path 118742" d="M549.165,225.639s6.475,6.992,8.715,24.538a49.146,49.146,0,0,1-14.373,2.38s-4.107-5.514-6.067-15.271,4.27-15.513,11.725-11.648Z" transform="translate(-30)" fill="#525252"/>
        <path id="Path_118743" data-name="Path 118743" d="M547.913,262.614s-1.649,18.013-2.9,30.568a68.143,68.143,0,0,1-1.4,9.194s1.25,1.333,4.732.968c0,0,10.307-31.56,9.639-39.89" transform="translate(-30)" fill="#fbab99"/>
        <path id="Path_118744" data-name="Path 118744" d="M543.978,300.712a32.882,32.882,0,0,1-2.578,2.353,13.816,13.816,0,0,0-2.244,3.354c-.029.207.819.332,1.329,0s1.993-1.772,2.215-1.883,2.768-.085,3.278-1.471" transform="translate(-30)" fill="#fbab99"/>
        <path id="Path_118745" data-name="Path 118745" d="M544.5,302.833s-1.1,2.9-1.479,3.791-1.721,1.613-1.747,1.99,3.791,1.625,6.237,1.356c1.727-.19,2.785-2.945,2.473-5.442-.13-1.04-1.237-2.473-.625-4.1" transform="translate(-30)" fill="#fbab99"/>
        <path id="Path_118759" data-name="Path 118759" d="M664.912,157.674a.908.908,0,1,1-.908-.908A.908.908,0,0,1,664.912,157.674Z" fill="#fff"/>
        <path id="Path_118760" data-name="Path 118760" d="M669.426,157.674a.908.908,0,1,1-.909-.908A.908.908,0,0,1,669.426,157.674Z" fill="#fff"/>
        <path id="Path_118761" data-name="Path 118761" d="M673.94,157.674a.909.909,0,1,1-.909-.908A.908.908,0,0,1,673.94,157.674Z" fill="#fff"/>
        <path id="Path_118801" data-name="Path 118801" d="M636.7,168.752H589.786a1.457,1.457,0,0,1-1.457-1.457h0a1.457,1.457,0,0,1,1.457-1.457H636.7a1.457,1.457,0,0,1,1.457,1.457h0A1.457,1.457,0,0,1,636.7,168.752Z" transform="translate(-413.427 159.087) rotate(-7)" fill="#00b3f3"/>
        <path id="Path_118802" data-name="Path 118802" d="M636.7,174.775H589.786a1.457,1.457,0,0,1-1.457-1.457h0a1.457,1.457,0,0,1,1.457-1.457H636.7a1.457,1.457,0,0,1,1.457,1.457h0A1.457,1.457,0,0,1,636.7,174.775Z" transform="translate(-413.427 159.087) rotate(-7)" fill="#00b3f3"/>
        <path id="Path_118803" data-name="Path 118803" d="M636.7,180.8H589.786a1.457,1.457,0,0,1-1.457-1.457h0a1.457,1.457,0,0,1,1.457-1.457H636.7a1.457,1.457,0,0,1,1.457,1.457h0A1.457,1.457,0,0,1,636.7,180.8Z" transform="translate(-413.427 159.087) rotate(-7)" fill="#00b3f3"/>
        <path id="Path_118804" data-name="Path 118804" d="M636.7,186.821H589.786a1.457,1.457,0,0,1-1.457-1.457h0a1.457,1.457,0,0,1,1.457-1.458H636.7a1.457,1.457,0,0,1,1.457,1.458h0A1.457,1.457,0,0,1,636.7,186.821Z" transform="translate(-413.427 159.087) rotate(-7)" fill="#00b3f3"/>
        <path id="Path_118805" data-name="Path 118805" d="M636.7,192.844H589.786a1.457,1.457,0,0,1-1.457-1.457h0a1.457,1.457,0,0,1,1.457-1.457H636.7a1.457,1.457,0,0,1,1.457,1.457h0A1.457,1.457,0,0,1,636.7,192.844Z" transform="translate(-413.427 159.087) rotate(-7)" fill="#00b3f3"/>
        <path id="Path_118806" data-name="Path 118806" d="M629.369,198.869H589.786a1.457,1.457,0,0,1-1.457-1.457h0a1.457,1.457,0,0,1,1.457-1.457h39.583a1.457,1.457,0,0,1,1.457,1.457h0A1.457,1.457,0,0,1,629.369,198.869Z" transform="translate(-413.427 159.087) rotate(-7)" fill="#00b3f3"/>
        <g id="surface1" transform="translate(314.583 196.66)">
          <path id="Path_118815" data-name="Path 118815" d="M57.019,36.217V20.384a1.833,1.833,0,0,0-.506-1.2L38.762.541A1.769,1.769,0,0,0,37.49,0H9.346A9.377,9.377,0,0,0,0,9.433V62.651a9.317,9.317,0,0,0,9.346,9.364H31.561a23.979,23.979,0,1,0,25.458-35.8ZM39.233,6.121,51.143,18.657H43.418a4.212,4.212,0,0,1-4.185-4.2ZM9.346,68.527a5.842,5.842,0,0,1-5.858-5.876V9.433A5.89,5.89,0,0,1,9.346,3.488h26.4V14.455a7.687,7.687,0,0,0,7.672,7.69H53.531V35.763c-.523-.017-.941-.07-1.395-.07a24.33,24.33,0,0,0-15.9,6H14.089a1.744,1.744,0,1,0,0,3.487h18.9a27.743,27.743,0,0,0-3.069,5.406H14.089a1.744,1.744,0,1,0,0,3.488h14.7a23.931,23.931,0,0,0,1.046,14.473H9.346ZM52.119,80.193A20.489,20.489,0,1,1,72.607,59.7,20.51,20.51,0,0,1,52.119,80.193Zm0,0" transform="translate(0 0)" fill="#0050a0"/>
          <path id="Path_118816" data-name="Path 118816" d="M77.295,205.171H94.958a1.744,1.744,0,0,0,0-3.488H77.295a1.744,1.744,0,1,0,0,3.488Zm0,0" transform="translate(-63.206 -168.728)" fill="#0050a0"/>
          <path id="Path_118817" data-name="Path 118817" d="M258.791,283.769a1.731,1.731,0,0,0-2.546,0l-10.218,10.968a1.737,1.737,0,0,0,.087,2.459,1.78,1.78,0,0,0,2.493-.087l7.219-7.725v19.041a1.744,1.744,0,0,0,3.488,0V289.384l7.166,7.725a1.74,1.74,0,0,0,2.546-2.372Zm0,0" transform="translate(-205.434 -236.933)" fill="#0050a0"/>
        </g>
      </g>
      <path id="Path_118809" data-name="Path 118809" d="M0,0H2.96V6.458H0Z" transform="translate(938.136 545.464)" fill="#0050a0"/>
      <path id="Path_118818" data-name="Path 118818" d="M0,0H2.96V6.458H0Z" transform="translate(934.767 545.464)" fill="#0050a0"/>
      <rect id="Rectangle_24118" data-name="Rectangle 24118" width="2.96" height="6.458" transform="translate(941.505 545.464)" fill="#0050a0"/>
      <rect id="Rectangle_24119" data-name="Rectangle 24119" width="2.96" height="6.458" transform="translate(944.873 545.464)" fill="#0050a0"/>
      <rect id="Rectangle_24120" data-name="Rectangle 24120" width="2.96" height="6.458" transform="translate(948.241 545.464)" fill="#0050a0"/>
      <rect id="Rectangle_24121" data-name="Rectangle 24121" width="2.96" height="6.458" transform="translate(951.61 545.464)" fill="#0050a0"/>
      <rect id="Rectangle_24122" data-name="Rectangle 24122" width="2.96" height="6.458" transform="translate(954.979 545.464)" fill="#0050a0"/>
      <rect id="Rectangle_24123" data-name="Rectangle 24123" width="2.96" height="6.458" transform="translate(958.348 545.464)" fill="#0050a0"/>
      <rect id="Rectangle_24124" data-name="Rectangle 24124" width="2.96" height="6.458" transform="translate(961.716 545.464)" fill="#0050a0"/>
      <rect id="Rectangle_24125" data-name="Rectangle 24125" width="2.96" height="6.458" transform="translate(965.085 545.464)" fill="#0050a0" opacity="0.5"/>
      <rect id="Rectangle_24126" data-name="Rectangle 24126" width="2.96" height="6.458" transform="translate(968.453 545.464)" fill="#0050a0" opacity="0.5"/>
      <rect id="Rectangle_24127" data-name="Rectangle 24127" width="2.96" height="6.458" transform="translate(971.822 545.464)" fill="#0050a0" opacity="0.5"/>
      <rect id="Rectangle_24128" data-name="Rectangle 24128" width="2.96" height="6.458" transform="translate(975.19 545.464)" fill="#0050a0" opacity="0.5"/>
      <rect id="Rectangle_24133" data-name="Rectangle 24133" width="75.066" height="7.918" transform="translate(933.519 544.734)" fill="none" stroke="#0050a0" stroke-miterlimit="10" stroke-width="0.75"/>
    </g>
  </g>
</svg>
