<svg id="select" xmlns="http://www.w3.org/2000/svg" width="24.147" height="24.147" viewBox="0 0 24.147 24.147">
  <g id="Group_638" data-name="Group 638" transform="translate(7.546 7.546)">
    <g id="Group_637" data-name="Group 637">
      <path id="Path_238" data-name="Path 238" d="M164.528,160a4.528,4.528,0,1,0,4.528,4.528A4.533,4.533,0,0,0,164.528,160Zm0,7.546a3.018,3.018,0,1,1,3.018-3.018A3.021,3.021,0,0,1,164.528,167.546Z" transform="translate(-160 -160)" fill="#ccc"/>
    </g>
  </g>
  <g id="Group_640" data-name="Group 640">
    <g id="Group_639" data-name="Group 639">
      <path id="Path_239" data-name="Path 239" d="M23.393,11.319h-2.3a9.061,9.061,0,0,0-8.263-8.263V.755a.755.755,0,0,0-1.509,0v2.3a9.062,9.062,0,0,0-8.263,8.263H.755a.755.755,0,0,0,0,1.509h2.3a9.061,9.061,0,0,0,8.263,8.263v2.3a.755.755,0,1,0,1.509,0v-2.3a9.061,9.061,0,0,0,8.263-8.263h2.3a.755.755,0,0,0,0-1.509Zm-11.319,8.3a7.546,7.546,0,1,1,7.546-7.546A7.555,7.555,0,0,1,12.074,19.62Z" fill="#ccc"/>
    </g>
  </g>
</svg>

