<svg xmlns="http://www.w3.org/2000/svg" width="23.359" height="23.388" viewBox="0 0 23.359 23.388">
  <g id="_037---Waypoint-Flag" data-name="037---Waypoint-Flag" transform="translate(0.283 0.267)">
    <path id="Shape" d="M22.493,11.443a17.09,17.09,0,0,1-3.941-2.708A52.35,52.35,0,0,0,19.9,1.758c.068-.548-.237-.725-.332-.766a.6.6,0,0,0-.722.24C16.76,3.725,13.906,3.44,10.884,3.137,7.839,2.833,4.7,2.524,2.368,5.2A1.3,1.3,0,0,0,1,4.757l-.052.015a1.3,1.3,0,0,0-.9,1.6L4.7,23.007a1.113,1.113,0,0,0,1.375.774l.407-.114h0a1.116,1.116,0,0,0,.774-1.375l-1.44-5.152c2.1-2.7,5.018-2.41,8.109-2.1s6.277.627,8.62-2.175h0a1.272,1.272,0,0,0,.26-1.021.56.56,0,0,0-.311-.4ZM6.487,22.768a.351.351,0,0,1-.213.168l-.407.114a.355.355,0,0,1-.437-.246L.782,6.169a.54.54,0,0,1,.374-.664l.052-.015a.532.532,0,0,1,.145-.02.54.54,0,0,1,.519.393l.041.148h0l2.381,8.519L6.52,22.5A.353.353,0,0,1,6.487,22.768Zm15.47-10.391c-2.084,2.492-4.938,2.207-7.959,1.905s-6.115-.611-8.435,1.963L3.484,8.8,2.7,5.989c2.1-2.7,5.018-2.4,8.111-2.094,2.937.293,5.969.6,8.276-1.793a50.989,50.989,0,0,1-1.269,6.436.746.746,0,0,0,.222.756,18.176,18.176,0,0,0,4.027,2.791.569.569,0,0,1-.108.292Z" transform="translate(-0.001 -0.953)" fill="#fff" stroke="#fff" stroke-width="0.5"/>
  </g>
</svg>
