
<svg xmlns="http://www.w3.org/2000/svg" width="26.316" height="15.369" viewBox="0 0 26.316 15.369">
  <g id="preview" transform="translate(0.158 -3.943)">
    <path id="Path_2578" data-name="Path 2578" d="M25.937,87.443A17.184,17.184,0,0,0,22.6,83.8a16.415,16.415,0,0,0-4.05-2.5,14.08,14.08,0,0,0-11.1,0A16.415,16.415,0,0,0,3.4,83.8,17.171,17.171,0,0,0,.061,87.443a.4.4,0,0,0,0,.426A17.171,17.171,0,0,0,3.4,91.515a16.422,16.422,0,0,0,4.05,2.5,14.081,14.081,0,0,0,9.321.626A.383.383,0,0,0,17,94.458a.4.4,0,0,0,.037-.3c-.055-.209.584-.312-.468-.276A13.284,13.284,0,0,1,13,94.371a14.3,14.3,0,0,1-9.1-3.45A17.417,17.417,0,0,1,.846,87.656,17.418,17.418,0,0,1,3.9,84.39,14.3,14.3,0,0,1,13,80.94a14.3,14.3,0,0,1,9.1,3.45,17.417,17.417,0,0,1,3.051,3.266,17.088,17.088,0,0,1-6.9,5.639c-1.925.763-1.484.457-1.889.684-.349.195.274.2.313.3s-.66.524-.237.45a21.429,21.429,0,0,0,2.105-.707,17.283,17.283,0,0,0,5.494-3.836,15.611,15.611,0,0,0,1.9-2.31.4.4,0,0,0,0-.43Zm0,0" transform="translate(0 -76.015)" fill="#0050a0" stroke="#0050a0" stroke-width="0.3"/>
    <path id="Path_2579" data-name="Path 2579" d="M150.122,112.219a5.824,5.824,0,1,0,5.84,5.824,5.832,5.832,0,0,0-5.84-5.824Zm0,10.864a5.045,5.045,0,1,1,5.059-5.045A5.052,5.052,0,0,1,150.122,123.083Zm0,0" transform="translate(-137.123 -106.4)" fill="#0050a0" stroke="#0050a0" stroke-width="0.3"/>
  </g>
</svg>
